<?xml version="1.0" encoding="UTF-8"?>
<svg width="60px" height="60px" viewBox="0 0 60 60" version="1.1" xmlns="http://www.w3.org/2000/svg" xmlns:xlink="http://www.w3.org/1999/xlink">
    <!-- Generator: Sketch 51.3 (57544) - http://www.bohemiancoding.com/sketch -->
    <title>047 - Programmer</title>
    <desc>Created with Sketch.</desc>
    <defs>
        <linearGradient x1="27.3809524%" y1="-7.81194768%" x2="98.6%" y2="97.921527%" id="linearGradient-1">
            <stop stop-color="#D3DFF2" offset="0%"></stop>
            <stop stop-color="#D3DFF2" offset="17.2%"></stop>
            <stop stop-color="#D3DFF2" offset="20%"></stop>
            <stop stop-color="#DAE2F2" offset="20%"></stop>
            <stop stop-color="#EBEAF2" offset="20.1%"></stop>
            <stop stop-color="#F6EFF2" offset="20.1%"></stop>
            <stop stop-color="#FDF2F2" offset="20.2%"></stop>
            <stop stop-color="#FFF3F2" offset="20.5%"></stop>
            <stop stop-color="#FFF3F2" offset="25.2%"></stop>
            <stop stop-color="#FFF3F2" offset="26%"></stop>
            <stop stop-color="#D3DFF2" offset="26%"></stop>
            <stop stop-color="#D3DFF2" offset="39.7%"></stop>
            <stop stop-color="#D3DFF2" offset="42%"></stop>
            <stop stop-color="#DAE2F2" offset="42%"></stop>
            <stop stop-color="#EBEAF2" offset="42.1%"></stop>
            <stop stop-color="#F6EFF2" offset="42.1%"></stop>
            <stop stop-color="#FDF2F2" offset="42.2%"></stop>
            <stop stop-color="#FFF3F2" offset="42.5%"></stop>
            <stop stop-color="#FFF3F2" offset="48.9%"></stop>
            <stop stop-color="#FFF3F2" offset="50%"></stop>
            <stop stop-color="#F8F0F2" offset="50%"></stop>
            <stop stop-color="#E7E8F2" offset="50%"></stop>
            <stop stop-color="#DCE3F2" offset="50%"></stop>
            <stop stop-color="#D5E0F2" offset="50%"></stop>
            <stop stop-color="#D3DFF2" offset="50.1%"></stop>
            <stop stop-color="#D3DFF2" offset="70.6%"></stop>
            <stop stop-color="#D3DFF2" offset="74%"></stop>
            <stop stop-color="#FFF3F2" offset="74.1%"></stop>
            <stop stop-color="#FFF3F2" offset="83.5%"></stop>
            <stop stop-color="#FFF3F2" offset="85%"></stop>
            <stop stop-color="#D3DFF2" offset="85.1%"></stop>
        </linearGradient>
    </defs>
    <g id="Page-1" stroke="none" stroke-width="1" fill="none" fill-rule="evenodd">
        <g id="047---Programmer" transform="translate(0.000000, 1.000000)">
            <path d="M25.45,8.39 C22.35,7.961 19.277,8.537 17.5,12 C16.395,14.153 17.956,16.645 17.062,18.938 C16.383,20.68 12.292,20.753 10.527,21.354 C9.68151859,21.6705819 8.79027202,21.8478856 7.888,21.879 C6.617,21.857 5.601,20.663 4.788,19.691 C2.34572832,16.757479 1.44281012,12.8379382 2.35549269,9.131559 C3.26817526,5.42517976 5.88783924,2.37306224 9.413,0.909 C12.5250904,-0.333561388 16.0123211,-0.234844916 19.0491353,1.18177956 C22.0859494,2.59840405 24.4023648,5.20699422 25.45,8.39 Z" id="Shape" fill="#CB8252" fill-rule="nonzero"></path>
            <path d="M32.5,37.375 L35.125,47.875 C35.78,49.028 39.69,46.868 41,46.975 L41,40 L32.5,37.375 Z" id="Shape" fill="#7FABFA" fill-rule="nonzero"></path>
            <path d="M59,14 L59,38 C58.9967052,39.1032019 58.1032019,39.9967052 57,40 L35.04,40 L29.72,32.77 L27.37,29.58 C26.6892816,28.0823265 25.4242066,26.9293009 23.87,26.39 C22.6622682,26.0803532 21.4157498,25.9489634 20.17,26 L14,24 C19.88,24 22.32,17.34 23.29,11.71 C23.3081442,11.6410026 23.3215092,11.5708362 23.33,11.5 L59,14 Z" id="Shape" fill="#A4C2F7" fill-rule="nonzero"></path>
            <path d="M56,14 L56,38 C55.9967052,39.1032019 55.1032019,39.9967052 54,40 L35.04,40 L29.72,32.77 L27.37,29.58 C26.6892816,28.0823265 25.4242066,26.9293009 23.87,26.39 C22.6622682,26.0803532 21.4157498,25.9489634 20.17,26 L14,24 C19.88,24 22.32,17.34 23.29,11.71 L56,14 Z" id="Shape" fill="url(#linearGradient-1)" fill-rule="nonzero"></path>
            <path d="M59,12 L59,14.5 L24.33,14.5 C24.4423673,13.6713915 24.4991608,12.8361924 24.5,12 C24.4959834,11.3294752 24.4357727,10.6604668 24.32,10 L57,10 C58.1032019,10.0032948 58.9967052,10.8967981 59,12 Z" id="Shape" fill="#7FABFA" fill-rule="nonzero"></path>
            <path d="M56,12 L56,14.5 L24.33,14.5 C24.4423673,13.6713915 24.4991608,12.8361924 24.5,12 C24.4959834,11.3294752 24.4357727,10.6604668 24.32,10 L54,10 C55.1032019,10.0032948 55.9967052,10.8967981 56,12 Z" id="Shape" fill="#A4C2F7" fill-rule="nonzero"></path>
            <path d="M59,52.5 C59,55.5375661 56.5375661,58 53.5,58 L48.5,58 L48.5,47 L53.5,47 C54.9586907,47 56.3576372,47.5794626 57.3890873,48.6109127 C58.4205374,49.6423628 59,51.0413093 59,52.5 Z" id="Shape" fill="#A4C2F7" fill-rule="nonzero"></path>
            <path d="M56,52.5 C56,55.5375661 53.5375661,58 50.5,58 L48.5,58 L48.5,47 L50.5,47 C51.9586907,47 53.3576372,47.5794626 54.3890873,48.6109127 C55.4205374,49.6423628 56,51.0413093 56,52.5 Z" id="Shape" fill="#D4E1F4" fill-rule="nonzero"></path>
            <path d="M26,12 C26,18.627417 20.627417,24 14,24 C13.5082275,24.0022274 13.0169403,23.9688066 12.53,23.9 C10.6416433,23.6846277 8.83524831,23.0080881 7.27,21.93 C11.98,21.61 15,19.94 15,13 C15,9.58 17.38,8.35 20.09,8.07 C21.8833585,7.93548868 23.6866861,8.04651445 25.45,8.4 C25.8178742,9.56445924 26.0034012,10.7788181 26,12 Z" id="Shape" fill="#A4C2F7" fill-rule="nonzero"></path>
            <path d="M23,12 C23.0020618,18.0362972 18.5174272,23.1334464 12.53,23.9 C10.6416433,23.6846277 8.83524831,23.0080881 7.27,21.93 C11.98,21.61 15,19.94 15,13 C15,9.58 17.38,8.35 20.09,8.07 C20.94,8.15 21.75,8.27 22.45,8.4 C22.8178742,9.56445924 23.0034012,10.7788181 23,12 Z" id="Shape" fill="#D4E1F4" fill-rule="nonzero"></path>
            <path d="M25.45,8.39 C24.53,8.26 23.44,8.1 22.31,8.03 C20.7448507,3.7278281 16.8948442,0.670242586 12.35,0.12 C18.1317868,-0.607645315 23.6203661,2.8572822 25.45,8.39 Z" id="Shape" fill="#A4C2F7" fill-rule="nonzero"></path>
            <path d="M22.31,8.03 C21.4706284,7.9698696 20.6277023,7.97990444 19.79,8.06 C18.0149433,8.11001711 16.3936942,9.07973624 15.51,10.62 C14.41,12.77 15.17,15.5 14.28,17.79 C13.6353958,19.4845102 12.2557084,20.7942934 10.53,21.35 C9.68485833,21.669687 8.79304272,21.8487258 7.89,21.88 C7.50817956,21.866786 7.13480866,21.7640234 6.8,21.58 C6.02134789,21.0765698 5.3403496,20.4362281 4.79,19.69 C2.35047165,16.756448 1.44868783,12.8388637 2.36011811,9.13395877 C3.2715484,5.42905384 5.88791814,2.37695776 9.41,0.91 C10.3508628,0.518136086 11.3394434,0.252497108 12.35,0.12 C16.8948442,0.670242586 20.7448507,3.7278281 22.31,8.03 Z" id="Shape" fill="#E3E7F2" fill-rule="nonzero"></path>
            <path d="M22.44,8.39 C21.66,8.28 20.74,8.15 19.79,8.06 C20.6277023,7.97990444 21.4706284,7.9698696 22.31,8.03 C22.36,8.15 22.4,8.27 22.44,8.39 Z" id="Shape" fill="#A4C2F7" fill-rule="nonzero"></path>
            <path d="M41.33,47 L38.33,47 C36.8895425,46.9976656 35.5610655,46.2227207 34.85,44.97 L25.87,29.08 C24.0986488,25.9413118 20.7740323,24.0000415 17.17,24 L20.17,24 C23.7740323,24.0000415 27.0986488,25.9413118 28.87,29.08 L37.85,44.97 C38.5610655,46.2227207 39.8895425,46.9976656 41.33,47 Z" id="Shape" fill="#A4C2F7" fill-rule="nonzero"></path>
            <path d="M49,47 L49,58 L38.49,58 C35.0709971,57.9976818 31.8891639,56.2521975 30.05,53.37 L26.74,48.16 C26.6459208,48.0081957 26.4626066,47.9371503 26.2907979,47.9859069 C26.1189891,48.0346634 26.0003179,48.1914073 26,48.37 L26,57 C26,57.5522847 25.5522847,58 25,58 L2,58 C1.44771525,58 1,57.5522847 1,57 L1,34 C1,28.4771525 5.4771525,24 11,24 L17.17,24 C20.7740323,24.0000415 24.0986488,25.9413118 25.87,29.08 L34.85,44.97 C35.5610655,46.2227207 36.8895425,46.9976656 38.33,47 L49,47 Z" id="Shape" fill="#E3E7F2" fill-rule="nonzero"></path>
            <path d="M2,58 L5,58 C4.44771525,58 4,57.5522847 4,57 L4,34 C4,28.4771525 8.4771525,24 14,24 L11,24 C5.4771525,24 1,28.4771525 1,34 L1,57 C1,57.5522847 1.44771525,58 2,58 Z" id="Shape" fill="#FFFFFF" fill-rule="nonzero"></path>
            <path d="M13.4,21.394 L13.5,21.363 L13.4,21.394 Z" id="Shape" fill="#FFFFFF" fill-rule="nonzero"></path>
            <path d="M15.53,23.9 C13.6416433,23.6846277 11.8352483,23.0080881 10.27,21.93 C10.47,21.916 10.67,21.896 10.87,21.877 L10.858,21.877 C10.6940235,21.8710876 10.5312786,21.8462565 10.373,21.803 C10.304,21.785 10.238,21.756 10.173,21.732 C10.0841111,21.7015086 9.99697791,21.6661212 9.912,21.626 C9.877,21.609 9.839,21.6 9.804,21.582 C9.769,21.564 9.715,21.52 9.67,21.492 C9.57,21.434 9.48,21.37 9.387,21.303 C9.319,21.252 9.249,21.203 9.187,21.152 C9.042,21.034 8.902,20.906 8.766,20.772 C8.715,20.722 8.666,20.672 8.617,20.618 C8.50033333,20.4973333 8.38666667,20.375 8.276,20.251 C8.253,20.225 8.231,20.201 8.209,20.175 C8.067,20.013 7.928,19.85 7.797,19.693 C5.37366961,16.7835974 4.46455229,12.9016277 5.34403612,9.21874 C6.22351995,5.53585226 8.78856716,2.48352279 12.265,0.983 C12.316,0.96 12.365,0.934 12.418,0.912 C12.8539908,0.733263128 13.3004882,0.581313748 13.755,0.457 C13.921,0.411 14.087,0.38 14.255,0.342 C14.547,0.274 14.838,0.212 15.131,0.168 C15.206,0.156 15.281,0.133 15.357,0.123 L15.385,0.123 C15.0483333,0.0796666667 14.71,0.051 14.37,0.037 C14.304,0.037 14.237,0.037 14.17,0.037 C13.853,0.029 13.535,0.032 13.217,0.051 C13.098,0.058 12.98,0.071 12.862,0.081 C12.693,0.096 12.524,0.103 12.356,0.125 C12.28,0.135 12.205,0.158 12.13,0.17 C11.837,0.214 11.546,0.276 11.254,0.344 C11.088,0.382 10.922,0.413 10.754,0.459 C10.2994882,0.583313748 9.85299082,0.735263128 9.417,0.914 C9.365,0.936 9.317,0.962 9.264,0.985 C5.78756716,2.48552279 3.22251995,5.53785226 2.34303612,9.22074 C1.46355229,12.9036277 2.37266961,16.7855974 4.796,19.695 C4.927,19.852 5.066,20.015 5.208,20.177 C5.23,20.203 5.252,20.227 5.275,20.253 C5.385,20.377 5.49866667,20.4993333 5.616,20.62 C5.665,20.672 5.716,20.72 5.765,20.774 C5.901,20.908 6.041,21.036 6.186,21.154 C6.252,21.209 6.322,21.254 6.386,21.305 C6.479,21.372 6.573,21.436 6.669,21.494 C6.714,21.522 6.757,21.559 6.803,21.584 C6.849,21.609 6.876,21.611 6.911,21.628 C6.99597791,21.6681212 7.08311115,21.7035086 7.172,21.734 C7.24,21.758 7.306,21.787 7.372,21.805 C7.53027859,21.8482565 7.69302354,21.8730876 7.857,21.879 L7.869,21.879 C7.669,21.898 7.474,21.918 7.269,21.932 C8.83424831,23.0100881 10.6406433,23.6866277 12.529,23.902 C13.0163193,23.9701858 13.5079423,24.0029383 14,24 L17,24.0001814 C16.5082275,24.0022274 16.0169403,23.9688066 15.53,23.9 Z" id="Shape" fill="#FFFFFF" fill-rule="nonzero"></path>
            <circle id="Oval" stroke="#428DFF" stroke-width="2" stroke-linecap="round" stroke-linejoin="round" cx="14" cy="12" r="12"></circle>
            <polygon id="Shape" fill="#FFFFFF" fill-rule="nonzero" points="0 57 0 44 0 34 2 34 2 44 2 57"></polygon>
            <path d="M1,52 C0.44771525,52 6.76353751e-17,52.4477153 0,53 L0,57 L2,57 L2,53 C2,52.4477153 1.55228475,52 1,52 Z" id="Shape" fill="#428DFF" fill-rule="nonzero"></path>
            <path d="M2,34 L0,34 L0,45 C6.76353751e-17,45.5522847 0.44771525,46 1,46 C1.55228475,46 2,45.5522847 2,45 L2,34 Z" id="Shape" fill="#428DFF" fill-rule="nonzero"></path>
            <path d="M5.77315973e-18,49 C0.0038803852,49.2647269 0.107434956,49.518257 0.29,49.71 L0.44,49.83 C0.495727127,49.8678773 0.556261922,49.8981446 0.62,49.92 C0.676662423,49.9488877 0.737337452,49.9691127 0.8,49.98 C0.86614452,49.9911308 0.932961153,49.9978125 1,50 C1.26472686,49.9961196 1.51825702,49.892565 1.71,49.71 C1.80039684,49.6143929 1.87167695,49.5023813 1.92,49.38 C2.07087658,49.0070263 1.98864806,48.5802212 1.71,48.29 C1.61439291,48.1996032 1.50238132,48.128323 1.38,48.08 C1.25977769,48.028759 1.13067726,48.00158 1,48 C0.735273141,48.0038804 0.481742984,48.107435 0.29,48.29 C0.107434956,48.481743 0.0038803852,48.7352731 5.77315973e-18,49 Z" id="Shape" fill="#428DFF" fill-rule="nonzero"></path>
            <path d="M1,57 C1,57.5522847 1.44771525,58 2,58 L25,58 C25.5522847,58 26,57.5522847 26,57 L26,48.37 C26.0019975,48.1938423 26.1190094,48.0397307 26.2881549,47.9904829 C26.4573003,47.9412351 26.638752,48.0084471 26.735,48.156 L30.053,53.369 C31.8885201,56.2532038 35.0702626,57.9998431 38.489,58 L53.5,58 C56.5375661,58 59,55.5375661 59,52.5 C59,51.0413093 58.4205374,49.6423628 57.3890873,48.6109127 C56.3576372,47.5794626 54.9586907,47 53.5,47 L41.334,47 C39.8918994,46.9998627 38.5615135,46.2234859 37.852,44.968 L28.871,29.079 C27.0967824,25.9403594 23.7704004,23.9997789 20.165,24 L11,24 C5.4771525,24 1,28.4771525 1,34" id="Shape" stroke="#428DFF" stroke-width="2" stroke-linecap="round" stroke-linejoin="round"></path>
            <path d="M15,13 C15,7.272 21.663,7.7 25.448,8.4 C23.8695098,3.38215991 19.2070295,-0.0226985957 13.9468217,0.00106169914 C8.68661394,0.024821994 4.05508263,3.47166144 2.521987,8.50355652 C0.98889136,13.5354516 2.91166869,18.9792289 7.265,21.932 C11.984,21.612 15,19.943 15,13 Z" id="Shape" stroke="#428DFF" stroke-width="2" stroke-linecap="round" stroke-linejoin="round"></path>
            <path d="M49,47 L49,58" id="Shape" stroke="#428DFF" stroke-width="2" stroke-linecap="round" stroke-linejoin="round"></path>
            <path d="M25.82,10 C26.4325658,13.4846664 25.4673332,17.0615026 23.1848709,19.7649267 C20.9024085,22.4683508 17.5380434,24.0196337 14,24 L20.165,24 C23.7704004,23.9997789 27.0967824,25.9403594 28.871,29.079 L35.044,40 L57,40 C58.1045695,40 59,39.1045695 59,38 L59,12 C59,10.8954305 58.1045695,10 57,10 L25.82,10 Z" id="Shape" stroke="#428DFF" stroke-width="2" stroke-linecap="round" stroke-linejoin="round"></path>
            <path d="M59,14 L25.834,14" id="Shape" stroke="#428DFF" stroke-width="2" stroke-linecap="round" stroke-linejoin="round"></path>
            <polyline id="Shape" stroke="#428DFF" stroke-width="2" stroke-linecap="round" stroke-linejoin="round" points="33 24 30 22 33 20"></polyline>
            <polyline id="Shape" stroke="#428DFF" stroke-width="2" stroke-linecap="round" stroke-linejoin="round" points="41 24 44 22 41 20"></polyline>
            <path d="M38,18 L36,26" id="Shape" stroke="#428DFF" stroke-width="2" stroke-linecap="round" stroke-linejoin="round"></path>
            <path d="M34,30 L43,30" id="Shape" stroke="#428DFF" stroke-width="2" stroke-linecap="round" stroke-linejoin="round"></path>
            <path d="M47,30 L55,30" id="Shape" stroke="#428DFF" stroke-width="2" stroke-linecap="round" stroke-linejoin="round"></path>
            <path d="M37,34 L48,34" id="Shape" stroke="#428DFF" stroke-width="2" stroke-linecap="round" stroke-linejoin="round"></path>
            <path d="M35.04,40 L37.85,44.97 C38.504821,46.1176446 39.6832019,46.8688156 41,46.978 L41,40 L35.04,40 Z" id="Shape" stroke="#428DFF" stroke-width="2" stroke-linecap="round" stroke-linejoin="round"></path>
        </g>
    </g>
</svg>